<svg width="38px" height="38px" viewBox="0 0 38 38" version="1.1" xmlns="http://www.w3.org/2000/svg" xmlns:xlink="http://www.w3.org/1999/xlink">
    <!-- Generator: Sketch 48.2 (47327) - http://www.bohemiancoding.com/sketch -->
    <desc>Created with Sketch.</desc>
    <defs></defs>
    <g id="Page-1" stroke="none" stroke-width="1" fill="none" fill-rule="evenodd">
        <g id="HomePage" transform="translate(-21.000000, -12.000000)" fill="#FFFFFF" fill-rule="nonzero">
            <g id="header">
                <g id="icon" transform="translate(21.000000, 12.000000)">
                    <path d="M37.129931,34.6841935 L37.129931,1.254 C37.129931,0.253741935 35.7907586,0 35.7907586,0 L8.27613793,0 C4.25862069,0 4.256,4.01206452 4.256,4.01206452 L4.256,36.106129 C4.256,36.8428387 4.89413793,37.4422581 5.68427586,37.4422581 L31.4142069,37.4422581 C32.2056552,37.4422581 32.8437931,36.8428387 32.8437931,36.106129 L35.7029655,36.1036774 C37.24,36.1036774 37.129931,34.6841935 37.129931,34.6841935 Z M30.8468276,13.4336129 L17.1969655,13.4336129 L17.1969655,6.55929032 L30.8468276,6.55929032 L30.8468276,13.4336129 Z M32.8424828,24.4683226 L32.8424828,5.40580645 C32.8424828,4.66664516 32.2043448,4.06967742 31.4128966,4.06967742 L7.06668966,4.05864516 C7.06668966,3.13929032 8.54475862,2.67470968 8.54475862,2.67470968 L32.8437931,2.67470968 C34.3637931,2.67470968 34.317931,3.92625806 34.317931,3.92625806 L34.317931,34.0222581 C34.317931,34.0222581 34.0689655,34.8925806 32.8437931,34.8925806 L32.8424828,24.4683226 Z M9.538,14.6594194 C9.538,15.7687742 8.57751724,16.6685161 7.39034483,16.6685161 L2.4202069,16.6685161 C1.23434483,16.6685161 0.272551724,15.7687742 0.272551724,14.6594194 C0.272551724,13.5500645 1.23434483,12.6515484 2.4202069,12.6515484 L7.39165517,12.6515484 C8.57751724,12.6515484 9.538,13.5500645 9.538,14.6594194 Z M9.538,24.9451613 C9.538,26.0545161 8.57751724,26.9554839 7.39034483,26.9554839 L2.4202069,26.9554839 C1.23434483,26.9554839 0.272551724,26.0545161 0.272551724,24.9451613 C0.272551724,23.8370323 1.23434483,22.9372903 2.4202069,22.9372903 L7.39165517,22.9372903 C8.57751724,22.9372903 9.538,23.8370323 9.538,24.9451613 Z" id="Shape"></path>
                </g>
            </g>
        </g>
    </g>
</svg>
