<svg width="30px" height="30px" viewBox="0 0 30 30" version="1.1" xmlns="http://www.w3.org/2000/svg" xmlns:xlink="http://www.w3.org/1999/xlink">
    <!-- Generator: Sketch 48.2 (47327) - http://www.bohemiancoding.com/sketch -->
    <desc>Created with Sketch.</desc>
    <defs></defs>
    <g id="Page-1" stroke="none" stroke-width="1" fill="none" fill-rule="evenodd">
        <g id="HomePage" transform="translate(-953.000000, -16.000000)" fill="#FFFFFF" fill-rule="nonzero">
            <g id="header">
                <g id="round-account-button-with-user-inside" transform="translate(953.000000, 16.000000)">
                    <path d="M15,0 C6.75,0 0,6.75 0,15 C0,23.25 6.75,30 15,30 C23.25,30 30,23.25 30,15 C30,6.75 23.25,0 15,0 Z M15,4.5 C17.55,4.5 19.5,6.45 19.5,9 C19.5,11.55 17.55,13.5 15,13.5 C12.45,13.5 10.5,11.55 10.5,9 C10.5,6.45 12.45,4.5 15,4.5 Z M15,25.8 C11.25,25.8 7.95,23.8500588 6,21 C6,18 12,16.35 15,16.35 C18,16.35 24,18 24,21 C22.05,23.85 18.75,25.8 15,25.8 Z" id="Shape"></path>
                </g>
            </g>
        </g>
    </g>
</svg>
